<?xml version="1.0" standalone="no"?>
<!DOCTYPE svg PUBLIC "-//W3C//DTD SVG 20010904//EN"
 "http://www.w3.org/TR/2001/REC-SVG-20010904/DTD/svg10.dtd">
<svg version="1.0" xmlns="http://www.w3.org/2000/svg"
 width="500.000000pt" height="500.000000pt" viewBox="0 0 500.000000 500.000000"
 preserveAspectRatio="xMidYMid meet">

<g transform="translate(0.000000,500.000000) scale(0.100000,-0.100000)"
fill="#000000" stroke="none">
<path d="M2230 3841 l0 -68 -83 -6 c-257 -20 -448 -167 -487 -375 -11 -62 -1
-155 25 -222 50 -128 201 -275 458 -445 l87 -58 0 -410 0 -409 -47 6 c-65 9
-160 41 -206 69 -21 13 -66 50 -99 83 -111 109 -174 278 -193 512 -5 68 -11
92 -21 92 -12 0 -14 -64 -14 -395 0 -342 2 -395 15 -395 8 0 17 11 21 25 3 14
18 34 31 45 46 36 99 26 293 -55 35 -15 99 -34 142 -43 l78 -15 0 -79 c0 -63
3 -78 15 -78 12 0 15 15 15 78 l0 77 98 2 c287 7 464 119 531 337 40 131 21
288 -48 398 -74 117 -234 256 -471 410 l-110 72 0 358 0 358 23 0 c42 0 140
-30 197 -61 145 -77 251 -255 268 -449 6 -60 10 -75 25 -78 16 -3 17 17 17
307 0 268 -2 311 -15 311 -8 0 -17 -12 -21 -27 -13 -58 -31 -73 -84 -73 -37 0
-70 10 -142 45 -91 45 -156 67 -230 80 l-38 6 0 69 c0 56 -3 70 -15 70 -12 0
-15 -14 -15 -69z m0 -476 c0 -190 -3 -345 -6 -345 -3 0 -47 31 -97 69 -109 82
-196 170 -227 231 -28 54 -37 153 -20 205 34 102 164 181 303 184 l47 1 0
-345z m118 -777 c112 -77 243 -210 276 -281 71 -153 27 -330 -102 -400 -60
-33 -151 -57 -214 -57 l-48 0 0 395 c0 217 3 395 6 395 3 0 40 -24 82 -52z"/>
</g>
</svg>
